<?xml version="1.0" standalone="no"?>
<!DOCTYPE svg PUBLIC "-//W3C//DTD SVG 20010904//EN"
 "http://www.w3.org/TR/2001/REC-SVG-20010904/DTD/svg10.dtd">
<svg version="1.0" xmlns="http://www.w3.org/2000/svg"
 width="445.000000pt" height="83.000000pt" viewBox="0 0 445.000000 83.000000"
 preserveAspectRatio="xMidYMid meet">

<g transform="translate(0.000000,83.000000) scale(0.100000,-0.100000)"
fill="#000000" stroke="none">
<path d="M0 415 l0 -415 2225 0 2225 0 0 415 0 415 -2225 0 -2225 0 0 -415z
m786 213 l61 -63 -27 -51 -28 -52 -73 74 -73 74 -188 0 -188 0 0 -190 0 -190
187 0 188 0 71 71 71 70 26 -53 26 -53 -56 -58 -57 -57 -293 0 -293 0 0 270 0
270 293 0 293 0 60 -62z m1034 -208 l0 -270 -279 0 -280 0 -53 56 c-29 31 -54
59 -56 64 -2 4 7 24 19 45 l22 37 61 -61 62 -61 187 0 187 0 0 190 0 190 -188
0 -188 0 -59 -60 c-33 -33 -62 -60 -65 -60 -3 0 -15 16 -28 36 l-23 36 58 63
58 63 283 1 282 1 0 -270z m467 123 c45 -21 52 -41 23 -65 -20 -16 -25 -17
-39 -4 -23 20 -56 28 -86 20 -21 -5 -25 -12 -23 -32 3 -23 12 -28 68 -45 87
-25 110 -48 110 -106 -1 -55 -15 -76 -63 -96 -48 -20 -93 -19 -143 4 -54 25
-61 38 -35 64 20 21 22 21 50 4 38 -22 109 -23 118 -1 11 28 -11 48 -76 69
-80 26 -116 63 -107 113 6 38 30 70 61 83 34 13 105 10 142 -8z m739 -2 c45
-27 64 -76 64 -164 0 -60 -4 -80 -23 -108 -42 -64 -120 -85 -186 -51 -56 28
-73 61 -79 146 -8 129 42 195 148 196 27 0 58 -8 76 -19z m1251 -7 c15 -11 28
-25 30 -31 6 -16 -47 -49 -55 -36 -26 39 -111 39 -136 0 -32 -51 -26 -158 11
-185 10 -7 37 -12 63 -10 41 3 45 6 48 31 3 24 0 27 -27 27 -28 0 -31 3 -31
30 l0 30 70 0 70 0 0 -74 0 -74 -35 -16 c-60 -29 -125 -31 -179 -8 -64 29 -91
86 -83 178 9 117 63 168 170 161 37 -2 67 -10 84 -23z m-3191 -25 c57 -53 53
-152 -7 -203 -25 -21 -41 -26 -85 -26 -48 0 -59 4 -91 33 -31 29 -37 41 -41
89 -4 52 -2 58 30 93 53 58 140 64 194 14z m1440 -34 c21 -41 42 -75 46 -75 3
0 25 34 47 75 41 74 42 75 81 75 l40 0 0 -170 0 -170 -35 0 -34 0 -3 108 -3
107 -35 -63 c-47 -85 -69 -83 -122 8 l-38 65 0 -112 0 -113 -35 0 -35 0 0 170
0 170 43 0 43 0 40 -75z m694 13 l1 -63 57 63 c51 56 61 62 95 62 l39 0 -44
-51 c-88 -103 -86 -84 -13 -188 36 -50 65 -94 65 -96 0 -3 -19 -5 -42 -5 -42
0 -44 2 -88 69 -53 83 -70 80 -70 -10 l0 -59 -35 0 -35 0 0 170 0 170 35 0 35
0 0 -62z m400 37 c0 -18 -5 -25 -20 -25 -19 0 -20 -7 -20 -120 0 -113 1 -120
20 -120 15 0 20 -7 20 -25 0 -25 -1 -25 -80 -25 -79 0 -80 0 -80 25 0 18 5 25
20 25 19 0 20 7 20 120 0 113 -1 120 -20 120 -15 0 -20 7 -20 25 0 25 1 25 80
25 79 0 80 0 80 -25z m214 -82 l55 -108 0 108 1 107 35 0 35 0 0 -170 0 -170
-43 0 -42 0 -60 118 -60 117 -3 -117 -3 -118 -34 0 -35 0 0 170 0 170 50 0 50
0 54 -107z"/>
<path d="M2914 490 c-30 -12 -48 -71 -41 -133 8 -67 29 -89 81 -85 54 4 68 30
64 122 -3 57 -8 71 -27 87 -25 20 -44 23 -77 9z"/>
</g>
</svg>
